<svg width="364" height="210" viewBox="0 0 364 210" fill="none" xmlns="http://www.w3.org/2000/svg">
<path d="M45.24 155L24.056 123.64C23.224 122.424 22.52 121.091 21.944 119.64C21.3893 118.168 21.112 116.877 21.112 115.768C21.112 113.848 21.6667 112.184 22.776 110.776C23.8853 109.368 25.4107 108.28 27.352 107.512C29.2933 106.744 31.5013 106.36 33.976 106.36C36.2587 106.36 38.3067 106.712 40.12 107.416C41.9547 108.12 43.3947 109.112 44.44 110.392C45.5067 111.651 46.04 113.133 46.04 114.84C46.04 116.568 45.688 118.008 44.984 119.16C44.28 120.312 43.32 121.304 42.104 122.136C40.888 122.947 39.5013 123.715 37.944 124.44C36.408 125.144 34.7973 125.933 33.112 126.808L33.016 126.744C34.04 126.104 35.0853 125.261 36.152 124.216C37.2187 123.171 38.104 121.869 38.808 120.312C39.512 118.733 39.864 116.856 39.864 114.68C39.864 113.677 39.704 112.547 39.384 111.288C39.064 110.008 38.4773 108.899 37.624 107.96C36.792 107.021 35.576 106.552 33.976 106.552C32.3333 106.552 31.032 106.947 30.072 107.736C29.112 108.504 28.4187 109.464 27.992 110.616C27.5867 111.768 27.384 112.909 27.384 114.04C27.384 115.149 27.768 116.515 28.536 118.136C29.304 119.757 30.3707 121.592 31.736 123.64L51.992 154.808H60.216V155H45.24ZM28.216 155.64C25.3787 155.64 22.8507 155.181 20.632 154.264C18.4347 153.347 16.7067 152.013 15.448 150.264C14.1893 148.515 13.56 146.413 13.56 143.96C13.56 142.104 13.9973 140.44 14.872 138.968C15.768 137.496 16.888 136.205 18.232 135.096C19.5973 133.987 21.0053 133.048 22.456 132.28C23.928 131.491 25.2507 130.851 26.424 130.36C27.5973 129.869 28.4293 129.507 28.92 129.272V129.336C27.1067 130.317 25.5813 131.48 24.344 132.824C23.1067 134.147 22.168 135.693 21.528 137.464C20.9093 139.235 20.6 141.293 20.6 143.64C20.6 144.92 20.8453 146.2 21.336 147.48C21.8267 148.739 22.52 149.901 23.416 150.968C24.3333 152.035 25.4107 152.888 26.648 153.528C27.9067 154.147 29.2827 154.456 30.776 154.456C33.336 154.456 35.7467 153.901 38.008 152.792C40.2693 151.683 42.3387 150.157 44.216 148.216C46.0933 146.253 47.736 144.045 49.144 141.592C50.552 139.117 51.6933 136.504 52.568 133.752C53.4427 131 53.9973 128.28 54.232 125.592H54.424C54.168 128.451 53.5707 131.309 52.632 134.168C51.6933 137.027 50.456 139.747 48.92 142.328C47.384 144.888 45.5707 147.171 43.48 149.176C41.4107 151.181 39.096 152.76 36.536 153.912C33.976 155.064 31.2027 155.64 28.216 155.64ZM45.816 125.752V125.56H61.176V125.752H45.816Z" fill="#4A473C"/>
<path d="M45.24 155L44.8257 155.28L44.9744 155.5H45.24V155ZM24.056 123.64L24.4703 123.36L24.4687 123.358L24.056 123.64ZM21.944 119.64L21.476 119.816L21.4793 119.825L21.944 119.64ZM22.776 110.776L23.1687 111.085L23.1687 111.085L22.776 110.776ZM40.12 107.416L39.939 107.882L39.9409 107.883L40.12 107.416ZM44.44 110.392L44.0527 110.708L44.0586 110.715L44.44 110.392ZM44.984 119.16L45.4106 119.421L45.4106 119.421L44.984 119.16ZM42.104 122.136L42.3814 122.552L42.3863 122.549L42.104 122.136ZM37.944 124.44L38.1523 124.895L38.1551 124.893L37.944 124.44ZM33.112 126.808L32.8347 127.224L33.0803 127.388L33.3423 127.252L33.112 126.808ZM33.016 126.744L32.751 126.32L32.0943 126.73L32.7387 127.16L33.016 126.744ZM36.152 124.216L35.802 123.859L35.802 123.859L36.152 124.216ZM38.808 120.312L39.2636 120.518L39.2647 120.516L38.808 120.312ZM39.384 111.288L38.8989 111.409L38.8994 111.411L39.384 111.288ZM37.624 107.96L37.2498 108.292L37.254 108.296L37.624 107.96ZM30.072 107.736L30.3844 108.126L30.3896 108.122L30.072 107.736ZM27.992 110.616L27.5231 110.442L27.5203 110.45L27.992 110.616ZM31.736 123.64L32.1553 123.368L32.152 123.363L31.736 123.64ZM51.992 154.808L51.5728 155.08L51.7206 155.308H51.992V154.808ZM60.216 154.808H60.716V154.308H60.216V154.808ZM60.216 155V155.5H60.716V155H60.216ZM20.632 154.264L20.4394 154.725L20.441 154.726L20.632 154.264ZM15.448 150.264L15.8539 149.972L15.8539 149.972L15.448 150.264ZM14.872 138.968L14.4449 138.708L14.4422 138.713L14.872 138.968ZM18.232 135.096L17.9167 134.708L17.9137 134.71L18.232 135.096ZM22.456 132.28L22.6899 132.722L22.6923 132.721L22.456 132.28ZM26.424 130.36L26.6169 130.821L26.6169 130.821L26.424 130.36ZM28.92 129.272H29.42V128.479L28.7043 128.821L28.92 129.272ZM28.92 129.336L29.158 129.776L29.42 129.634V129.336H28.92ZM24.344 132.824L24.7091 133.166L24.7118 133.163L24.344 132.824ZM21.528 137.464L21.0577 137.294L21.056 137.299L21.528 137.464ZM21.336 147.48L20.8691 147.659L20.8701 147.662L21.336 147.48ZM23.416 150.968L23.0331 151.29L23.0369 151.294L23.416 150.968ZM26.648 153.528L26.4182 153.972L26.4274 153.977L26.648 153.528ZM38.008 152.792L37.7878 152.343L37.7878 152.343L38.008 152.792ZM44.216 148.216L44.5754 148.564L44.5773 148.562L44.216 148.216ZM49.144 141.592L49.5777 141.841L49.5786 141.839L49.144 141.592ZM54.232 125.592V125.092H53.7738L53.7339 125.549L54.232 125.592ZM54.424 125.592L54.922 125.637L54.9708 125.092H54.424V125.592ZM52.632 134.168L53.107 134.324L53.107 134.324L52.632 134.168ZM48.92 142.328L49.3488 142.585L49.3497 142.584L48.92 142.328ZM43.48 149.176L43.1339 148.815L43.132 148.817L43.48 149.176ZM36.536 153.912L36.7412 154.368L36.536 153.912ZM45.816 125.752H45.316V126.252H45.816V125.752ZM45.816 125.56V125.06H45.316V125.56H45.816ZM61.176 125.56H61.676V125.06H61.176V125.56ZM61.176 125.752V126.252H61.676V125.752H61.176ZM45.6543 154.72L24.4703 123.36L23.6417 123.92L44.8257 155.28L45.6543 154.72ZM24.4687 123.358C23.6588 122.174 22.9718 120.874 22.4087 119.455L21.4793 119.825C22.0682 121.308 22.7892 122.674 23.6433 123.922L24.4687 123.358ZM22.4119 119.464C21.8703 118.026 21.612 116.798 21.612 115.768H20.612C20.612 116.957 20.9084 118.31 21.4761 119.816L22.4119 119.464ZM21.612 115.768C21.612 113.952 22.134 112.399 23.1687 111.085L22.3833 110.467C21.1993 111.969 20.612 113.744 20.612 115.768H21.612ZM23.1687 111.085C24.215 109.758 25.663 108.718 27.5359 107.977L27.1681 107.047C25.1583 107.842 23.5557 108.978 22.3833 110.467L23.1687 111.085ZM27.5359 107.977C29.4089 107.236 31.5529 106.86 33.976 106.86V105.86C31.4498 105.86 29.1777 106.252 27.1681 107.047L27.5359 107.977ZM33.976 106.86C36.2073 106.86 38.1925 107.204 39.939 107.882L40.301 106.95C38.4209 106.22 36.31 105.86 33.976 105.86V106.86ZM39.9409 107.883C41.7097 108.562 43.0721 109.507 44.0527 110.708L44.8273 110.076C43.7173 108.717 42.1997 107.678 40.2991 106.949L39.9409 107.883ZM44.0586 110.715C45.0459 111.88 45.54 113.247 45.54 114.84H46.54C46.54 113.019 45.9675 111.421 44.8215 110.069L44.0586 110.715ZM45.54 114.84C45.54 116.501 45.2017 117.845 44.5574 118.899L45.4106 119.421C46.1743 118.171 46.54 116.635 46.54 114.84H45.54ZM44.5574 118.899C43.8934 119.986 42.9848 120.928 41.8217 121.723L42.3863 122.549C43.6553 121.68 44.6666 120.638 45.4106 119.421L44.5574 118.899ZM41.8267 121.72C40.635 122.514 39.2711 123.27 37.7329 123.987L38.1551 124.893C39.7316 124.159 41.141 123.379 42.3814 122.552L41.8267 121.72ZM37.7357 123.985C36.1914 124.693 34.5734 125.486 32.8817 126.364L33.3423 127.252C35.0213 126.38 36.6246 125.595 38.1523 124.895L37.7357 123.985ZM33.3893 126.392L33.2933 126.328L32.7387 127.16L32.8347 127.224L33.3893 126.392ZM33.281 127.168C34.3419 126.505 35.4153 125.638 36.502 124.573L35.802 123.859C34.7554 124.885 33.7381 125.703 32.751 126.32L33.281 127.168ZM36.502 124.573C37.6188 123.479 38.5377 122.124 39.2636 120.518L38.3524 120.106C37.6703 121.615 36.8185 122.863 35.802 123.859L36.502 124.573ZM39.2647 120.516C40.0036 118.859 40.364 116.909 40.364 114.68H39.364C39.364 116.803 39.0204 118.608 38.3513 120.108L39.2647 120.516ZM40.364 114.68C40.364 113.626 40.196 112.453 39.8686 111.165L38.8994 111.411C39.212 112.641 39.364 113.729 39.364 114.68H40.364ZM39.8691 111.167C39.5299 109.81 38.9051 108.626 37.994 107.624L37.254 108.296C38.0496 109.171 38.5981 110.206 38.8989 111.409L39.8691 111.167ZM37.9982 107.628C37.0465 106.555 35.6769 106.052 33.976 106.052V107.052C35.4751 107.052 36.5375 107.488 37.2498 108.292L37.9982 107.628ZM33.976 106.052C32.255 106.052 30.8292 106.466 29.7544 107.35L30.3896 108.122C31.2348 107.427 32.4116 107.052 33.976 107.052V106.052ZM29.7597 107.346C28.7288 108.17 27.9813 109.205 27.5231 110.442L28.4609 110.79C28.856 109.723 29.4952 108.838 30.3843 108.126L29.7597 107.346ZM27.5203 110.45C27.0978 111.651 26.884 112.848 26.884 114.04H27.884C27.884 112.97 28.0756 111.885 28.4637 110.782L27.5203 110.45ZM26.884 114.04C26.884 115.255 27.3018 116.698 28.0841 118.35L28.9879 117.922C28.2342 116.331 27.884 115.043 27.884 114.04H26.884ZM28.0841 118.35C28.8655 120 29.9457 121.856 31.32 123.917L32.152 123.363C30.7956 121.328 29.7425 119.515 28.9879 117.922L28.0841 118.35ZM31.3168 123.912L51.5728 155.08L52.4112 154.536L32.1552 123.368L31.3168 123.912ZM51.992 155.308H60.216V154.308H51.992V155.308ZM59.716 154.808V155H60.716V154.808H59.716ZM60.216 154.5H45.24V155.5H60.216V154.5ZM28.216 155.14C25.4325 155.14 22.9712 154.69 20.823 153.802L20.441 154.726C22.7302 155.673 25.3248 156.14 28.216 156.14V155.14ZM20.8246 153.803C18.7034 152.917 17.0529 151.638 15.8539 149.972L15.0421 150.556C16.3604 152.388 18.1659 153.776 20.4394 154.725L20.8246 153.803ZM15.8539 149.972C14.6647 148.319 14.06 146.324 14.06 143.96H13.06C13.06 146.503 13.714 148.71 15.0421 150.556L15.8539 149.972ZM14.06 143.96C14.06 142.186 14.4769 140.612 15.3018 139.223L14.4422 138.713C13.5177 140.268 13.06 142.022 13.06 143.96H14.06ZM15.2991 139.228C16.1658 137.804 17.2488 136.556 18.5503 135.482L17.9137 134.71C16.5272 135.855 15.3702 137.188 14.4449 138.708L15.2991 139.228ZM18.5473 135.484C19.8891 134.394 21.2701 133.474 22.6899 132.722L22.2221 131.838C20.7406 132.622 19.3055 133.58 17.9167 134.708L18.5473 135.484ZM22.6923 132.721C24.1543 131.937 25.4621 131.304 26.6169 130.821L26.2311 129.899C25.0392 130.397 23.7017 131.045 22.2197 131.839L22.6923 132.721ZM26.6169 130.821C27.7905 130.331 28.6327 129.964 29.1357 129.723L28.7043 128.821C28.226 129.05 27.4041 129.408 26.2311 129.899L26.6169 130.821ZM28.42 129.272V129.336H29.42V129.272H28.42ZM28.682 128.896C26.8263 129.901 25.2554 131.096 23.9762 132.485L24.7118 133.163C25.9073 131.864 27.387 130.734 29.158 129.776L28.682 128.896ZM23.9789 132.482C22.6934 133.857 21.7199 135.462 21.0578 137.294L21.9982 137.634C22.6161 135.924 23.5199 134.437 24.7091 133.166L23.9789 132.482ZM21.056 137.299C20.4148 139.134 20.1 141.251 20.1 143.64H21.1C21.1 141.336 21.4039 139.335 22 137.629L21.056 137.299ZM20.1 143.64C20.1 144.985 20.3581 146.326 20.8691 147.659L21.8029 147.301C21.3325 146.074 21.1 144.855 21.1 143.64H20.1ZM20.8701 147.662C21.3813 148.973 22.1031 150.182 23.0331 151.29L23.7989 150.646C22.9369 149.62 22.2721 148.505 21.8019 147.298L20.8701 147.662ZM23.0369 151.294C23.9956 152.409 25.1235 153.302 26.4183 153.972L26.8777 153.084C25.6979 152.474 24.6711 151.661 23.7951 150.642L23.0369 151.294ZM26.4274 153.977C27.7591 154.631 29.2113 154.956 30.776 154.956V153.956C29.3541 153.956 28.0542 153.662 26.8686 153.079L26.4274 153.977ZM30.776 154.956C33.411 154.956 35.8972 154.384 38.2282 153.241L37.7878 152.343C35.5961 153.418 33.261 153.956 30.776 153.956V154.956ZM38.2282 153.241C40.5451 152.104 42.6608 150.543 44.5754 148.564L43.8566 147.868C42.0165 149.771 39.9936 151.261 37.7878 152.343L38.2282 153.241ZM44.5773 148.562C46.4837 146.569 48.1504 144.328 49.5777 141.841L48.7103 141.343C47.3216 143.763 45.7029 145.938 43.8547 147.87L44.5773 148.562ZM49.5786 141.839C51.0041 139.334 52.1594 136.688 53.0445 133.903L52.0915 133.601C51.2273 136.32 50.0999 138.901 48.7094 141.345L49.5786 141.839ZM53.0445 133.903C53.9296 131.119 54.492 128.363 54.7301 125.635L53.7339 125.549C53.5026 128.197 52.9558 130.881 52.0915 133.601L53.0445 133.903ZM54.232 126.092H54.424V125.092H54.232V126.092ZM53.926 125.547C53.6735 128.366 53.0843 131.188 52.157 134.012L53.107 134.324C54.057 131.431 54.6625 128.535 54.922 125.637L53.926 125.547ZM52.157 134.012C51.2297 136.836 50.0076 139.523 48.4903 142.072L49.3497 142.584C50.9044 139.971 52.157 137.217 53.107 134.324L52.157 134.012ZM48.4913 142.071C46.9774 144.594 45.1916 146.841 43.1339 148.815L43.8261 149.537C45.9498 147.5 47.7906 145.182 49.3487 142.585L48.4913 142.071ZM43.132 148.817C41.1032 150.783 38.8366 152.328 36.3308 153.456L36.7412 154.368C39.3554 153.192 41.7181 151.58 43.828 149.535L43.132 148.817ZM36.3308 153.456C33.8394 154.577 31.1365 155.14 28.216 155.14V156.14C31.2688 156.14 34.1126 155.551 36.7412 154.368L36.3308 153.456ZM46.316 125.752V125.56H45.316V125.752H46.316ZM45.816 126.06H61.176V125.06H45.816V126.06ZM60.676 125.56V125.752H61.676V125.56H60.676ZM61.176 125.252H45.816V126.252H61.176V125.252Z" fill="#4A473C"/>
<path d="M46.912 87.864C43.424 87.864 40.128 86.952 37.024 85.128C33.92 83.304 31.392 80.68 29.44 77.256C27.52 73.832 26.56 69.72 26.56 64.92C26.56 60.12 27.52 56.008 29.44 52.584C31.392 49.128 33.92 46.488 37.024 44.664C40.128 42.808 43.424 41.88 46.912 41.88C51.232 41.88 54.672 43.496 57.232 46.728C59.792 49.928 61.328 54.472 61.84 60.36V15.192H56.08V15H70.528V86.808H76.288V87H61.84V69.48C61.328 75.368 59.792 79.912 57.232 83.112C54.672 86.28 51.232 87.864 46.912 87.864ZM48.352 87.192C50.848 87.192 53.12 86.36 55.168 84.696C57.216 83.032 58.832 80.552 60.016 77.256C61.232 73.96 61.84 69.848 61.84 64.92C61.84 59.992 61.232 55.88 60.016 52.584C58.832 49.256 57.216 46.76 55.168 45.096C53.12 43.4 50.848 42.552 48.352 42.552C45.664 42.552 43.456 43.528 41.728 45.48C40 47.4 38.72 50.056 37.888 53.448C37.056 56.808 36.64 60.632 36.64 64.92C36.64 69.208 37.056 73.032 37.888 76.392C38.72 79.752 40 82.392 41.728 84.312C43.456 86.232 45.664 87.192 48.352 87.192ZM115.185 87.96C113.681 87.96 112.257 87.752 110.913 87.336C109.569 86.952 108.465 86.168 107.601 84.984C106.769 83.8 106.353 82.072 106.353 79.8V57.768C106.353 55.464 106.177 53.144 105.825 50.808C105.505 48.44 104.737 46.472 103.521 44.904C102.337 43.336 100.465 42.552 97.9053 42.552C96.1133 42.552 94.3373 42.776 92.5773 43.224C90.8173 43.672 89.2013 44.312 87.7293 45.144C86.2893 45.944 85.1213 46.92 84.2253 48.072C83.3613 49.192 82.9293 50.456 82.9293 51.864H82.8333C82.8333 50.232 83.3613 48.952 84.4173 48.024C85.5053 47.064 86.6893 46.584 87.9693 46.584C89.3453 46.584 90.5933 47.032 91.7133 47.928C92.8653 48.792 93.4413 50.04 93.4413 51.672C93.4413 53.592 92.8493 54.984 91.6653 55.848C90.5133 56.712 89.2813 57.144 87.9693 57.144C86.4973 57.144 85.2493 56.696 84.2253 55.8C83.2333 54.904 82.7373 53.592 82.7373 51.864C82.7373 50.36 83.2013 49.016 84.1293 47.832C85.0893 46.616 86.3693 45.592 87.9693 44.76C89.6013 43.896 91.4413 43.24 93.4893 42.792C95.5373 42.312 97.6493 42.072 99.8253 42.072C104.241 42.072 107.521 42.84 109.665 44.376C111.841 45.912 113.265 47.88 113.937 50.28C114.641 52.68 114.993 55.176 114.993 57.768V82.632C114.993 83.784 115.217 84.792 115.665 85.656C116.145 86.488 117.073 86.904 118.449 86.904C119.569 86.904 120.801 86.36 122.145 85.272C123.521 84.184 124.609 82.728 125.409 80.904L125.553 81C124.721 83.048 123.377 84.728 121.521 86.04C119.665 87.32 117.553 87.96 115.185 87.96ZM93.0573 87.96C88.8973 87.96 85.5693 86.904 83.0733 84.792C80.6093 82.648 79.3773 79.752 79.3773 76.104C79.3773 71.816 81.1693 68.536 84.7533 66.264C88.3693 63.96 93.5853 62.808 100.401 62.808H110.817V63H100.401C97.5853 63 95.3613 63.704 93.7293 65.112C92.1293 66.488 90.9773 68.152 90.2733 70.104C89.6013 72.056 89.2653 73.912 89.2653 75.672C89.2653 77.272 89.4573 78.952 89.8413 80.712C90.2253 82.44 90.8973 83.912 91.8573 85.128C92.8173 86.312 94.1293 86.904 95.7933 86.904C97.7133 86.904 99.4733 86.328 101.073 85.176C102.673 83.992 103.953 82.136 104.913 79.608C105.873 77.08 106.353 73.768 106.353 69.672H106.545C106.545 73.32 106.097 76.52 105.201 79.272C104.305 82.024 102.865 84.168 100.881 85.704C98.9293 87.208 96.3213 87.96 93.0573 87.96ZM140.283 15V86.808H147.963V87H123.963V86.808H131.691V15.192H123.963V15H140.283ZM160.345 25.56C158.777 25.56 157.417 25 156.265 23.88C155.145 22.728 154.585 21.368 154.585 19.8C154.585 18.2 155.145 16.84 156.265 15.72C157.417 14.6 158.777 14.04 160.345 14.04C161.945 14.04 163.305 14.6 164.425 15.72C165.545 16.84 166.105 18.2 166.105 19.8C166.105 21.368 165.545 22.728 164.425 23.88C163.305 25 161.945 25.56 160.345 25.56ZM164.617 42.84V86.808H170.377V87H150.217V86.808H155.977V43.032H150.217V42.84H164.617ZM187.482 87.672C184.858 87.672 182.922 87.096 181.674 85.944C180.458 84.792 179.658 83.352 179.274 81.624C178.922 79.864 178.746 78.104 178.746 76.344V33.24C180.186 33.24 181.738 32.936 183.402 32.328C185.098 31.72 186.426 31.064 187.386 30.36V80.088C187.386 82.488 187.674 84.104 188.25 84.936C188.826 85.736 189.754 86.136 191.034 86.136C192.858 86.136 194.634 85.24 196.362 83.448C198.09 81.624 199.434 79.544 200.394 77.208H200.586C199.434 80.28 197.69 82.792 195.354 84.744C193.05 86.696 190.426 87.672 187.482 87.672ZM171.738 43.032V42.84H197.658V43.032H171.738Z" fill="#4A473C"/>
<path d="M37.024 85.128L37.2773 84.6969L37.2773 84.6969L37.024 85.128ZM29.44 77.256L29.0039 77.5006L29.0056 77.5036L29.44 77.256ZM29.44 52.584L29.0046 52.3381L29.0039 52.3394L29.44 52.584ZM37.024 44.664L37.2773 45.0951L37.2806 45.0931L37.024 44.664ZM57.232 46.728L56.8401 47.0385L56.8416 47.0403L57.232 46.728ZM61.84 60.36L61.3419 60.4033L62.34 60.36H61.84ZM61.84 15.192H62.34V14.692H61.84V15.192ZM56.08 15.192H55.58V15.692H56.08V15.192ZM56.08 15V14.5H55.58V15H56.08ZM70.528 15H71.028V14.5H70.528V15ZM70.528 86.808H70.028V87.308H70.528V86.808ZM76.288 86.808H76.788V86.308H76.288V86.808ZM76.288 87V87.5H76.788V87H76.288ZM61.84 87H61.34V87.5H61.84V87ZM61.84 69.48H62.34L61.3419 69.4367L61.84 69.48ZM57.232 83.112L57.6209 83.4263L57.6224 83.4243L57.232 83.112ZM55.168 84.696L55.4833 85.0841L55.168 84.696ZM60.016 77.256L59.5469 77.0829L59.5454 77.087L60.016 77.256ZM60.016 52.584L59.5449 52.7516L59.5469 52.7571L60.016 52.584ZM55.168 45.096L54.8491 45.4811L54.8527 45.4841L55.168 45.096ZM41.728 45.48L42.0997 45.8145L42.1024 45.8114L41.728 45.48ZM37.888 53.448L38.3733 53.5682L38.3736 53.5671L37.888 53.448ZM37.888 76.392L38.3733 76.2718L38.3733 76.2718L37.888 76.392ZM41.728 84.312L41.3564 84.6465L41.3564 84.6465L41.728 84.312ZM46.912 87.364C43.516 87.364 40.3071 86.4773 37.2773 84.6969L36.7707 85.5591C39.9489 87.4267 43.332 88.364 46.912 88.364V87.364ZM37.2773 84.6969C34.2557 82.9213 31.7873 80.3638 29.8744 77.0084L29.0056 77.5036C30.9967 80.9962 33.5843 83.6867 36.7707 85.5591L37.2773 84.6969ZM29.8761 77.0114C28.0064 73.6771 27.06 69.6533 27.06 64.92H26.06C26.06 69.7867 27.0336 73.9869 29.0039 77.5005L29.8761 77.0114ZM27.06 64.92C27.06 60.1867 28.0064 56.1629 29.8761 52.8285L29.0039 52.3394C27.0336 55.8531 26.06 60.0533 26.06 64.92H27.06ZM29.8754 52.8299C31.7886 49.4425 34.2569 46.87 37.2773 45.0951L36.7707 44.2329C33.5831 46.106 30.9954 48.8135 29.0046 52.3381L29.8754 52.8299ZM37.2806 45.0931C40.31 43.2817 43.5178 42.38 46.912 42.38V41.38C43.3302 41.38 39.946 42.3343 36.7674 44.2349L37.2806 45.0931ZM46.912 42.38C51.0877 42.38 54.38 43.9327 56.8401 47.0384L57.6239 46.4175C54.964 43.0593 51.3763 41.38 46.912 41.38V42.38ZM56.8416 47.0403C59.3182 50.1362 60.8348 54.5722 61.3419 60.4033L62.3381 60.3167C61.8212 54.3718 60.2658 49.7198 57.6224 46.4157L56.8416 47.0403ZM62.34 60.36V15.192H61.34V60.36H62.34ZM61.84 14.692H56.08V15.692H61.84V14.692ZM56.58 15.192V15H55.58V15.192H56.58ZM56.08 15.5H70.528V14.5H56.08V15.5ZM70.028 15V86.808H71.028V15H70.028ZM70.528 87.308H76.288V86.308H70.528V87.308ZM75.788 86.808V87H76.788V86.808H75.788ZM76.288 86.5H61.84V87.5H76.288V86.5ZM62.34 87V69.48H61.34V87H62.34ZM61.3419 69.4367C60.8348 75.2678 59.3182 79.7038 56.8416 82.7997L57.6224 83.4243C60.2658 80.1202 61.8212 75.4682 62.3381 69.5233L61.3419 69.4367ZM56.8431 82.7977C54.3845 85.8403 51.0915 87.364 46.912 87.364V88.364C51.3725 88.364 54.9595 86.7197 57.6209 83.4263L56.8431 82.7977ZM48.352 87.692C50.9697 87.692 53.3517 86.816 55.4833 85.0841L54.8527 84.3079C52.8883 85.904 50.7263 86.692 48.352 86.692V87.692ZM55.4833 85.0841C57.6216 83.3467 59.2815 80.7795 60.4866 77.425L59.5454 77.087C58.3825 80.3245 56.8104 82.7173 54.8527 84.3079L55.4833 85.0841ZM60.4851 77.4291C61.728 74.0602 62.34 69.8851 62.34 64.92H61.34C61.34 69.8109 60.736 73.8598 59.5469 77.0829L60.4851 77.4291ZM62.34 64.92C62.34 59.9549 61.728 55.7798 60.4851 52.4109L59.5469 52.7571C60.736 55.9802 61.34 60.0291 61.34 64.92H62.34ZM60.4871 52.4164C59.2824 49.0304 57.6227 46.4462 55.4833 44.7079L54.8527 45.4841C56.8093 47.0738 58.3816 49.4816 59.5449 52.7516L60.4871 52.4164ZM55.4869 44.7109C53.3555 42.9459 50.9724 42.052 48.352 42.052V43.052C50.7236 43.052 52.8845 43.8541 54.8491 45.4811L55.4869 44.7109ZM48.352 42.052C45.5259 42.052 43.1798 43.0856 41.3536 45.1486L42.1024 45.8114C43.7322 43.9704 45.8021 43.052 48.352 43.052V42.052ZM41.3564 45.1455C39.5572 47.1446 38.2474 49.8838 37.4024 53.3289L38.3736 53.5671C39.1926 50.2282 40.4428 47.6554 42.0996 45.8145L41.3564 45.1455ZM37.4027 53.3278C36.5589 56.7352 36.14 60.6007 36.14 64.92H37.14C37.14 60.6633 37.5531 56.8808 38.3733 53.5682L37.4027 53.3278ZM36.14 64.92C36.14 69.2393 36.5589 73.1048 37.4027 76.5122L38.3733 76.2718C37.5531 72.9592 37.14 69.1767 37.14 64.92H36.14ZM37.4027 76.5122C38.248 79.9259 39.558 82.6483 41.3564 84.6465L42.0996 83.9775C40.442 82.1357 39.192 79.5781 38.3733 76.2718L37.4027 76.5122ZM41.3564 84.6465C43.1835 86.6766 45.5288 87.692 48.352 87.692V86.692C45.7992 86.692 43.7285 85.7874 42.0996 83.9775L41.3564 84.6465ZM110.913 87.336L111.061 86.8582L111.051 86.8552L110.913 87.336ZM107.601 84.984L107.192 85.2715L107.197 85.2787L107.601 84.984ZM105.825 50.808L105.33 50.875L105.331 50.8825L105.825 50.808ZM103.521 44.904L103.122 45.2053L103.126 45.2104L103.521 44.904ZM87.7293 45.144L87.9721 45.5811L87.9753 45.5793L87.7293 45.144ZM84.2253 48.072L83.8306 47.765L83.8294 47.7666L84.2253 48.072ZM82.9293 51.864V52.364H83.4293V51.864H82.9293ZM82.8333 51.864H82.3333V52.364H82.8333V51.864ZM84.4173 48.024L84.7473 48.3996L84.7481 48.3989L84.4173 48.024ZM91.7133 47.928L91.4009 48.3184L91.407 48.3233L91.4133 48.328L91.7133 47.928ZM91.6653 55.848L91.3705 55.4441L91.3653 55.448L91.6653 55.848ZM84.2253 55.8L83.8901 56.1711L83.896 56.1763L84.2253 55.8ZM84.1293 47.832L83.7368 47.5222L83.7357 47.5236L84.1293 47.832ZM87.9693 44.76L88.1999 45.2036L88.2032 45.2019L87.9693 44.76ZM93.4893 42.792L93.5961 43.2805L93.6033 43.2788L93.4893 42.792ZM109.665 44.376L109.374 44.7825L109.377 44.7845L109.665 44.376ZM113.937 50.28L113.456 50.4148L113.457 50.4207L113.937 50.28ZM115.665 85.656L115.221 85.8862L115.227 85.8961L115.232 85.9059L115.665 85.656ZM122.145 85.272L121.835 84.8798L121.831 84.8834L122.145 85.272ZM125.409 80.904L125.687 80.488L125.191 80.1574L124.951 80.7032L125.409 80.904ZM125.553 81L126.016 81.1882L126.17 80.8103L125.831 80.584L125.553 81ZM121.521 86.04L121.805 86.4516L121.81 86.4483L121.521 86.04ZM83.0733 84.792L82.745 85.1692L82.7503 85.1737L83.0733 84.792ZM84.7533 66.264L85.021 66.6863L85.0219 66.6857L84.7533 66.264ZM110.817 62.808H111.317V62.308H110.817V62.808ZM110.817 63V63.5H111.317V63H110.817ZM93.7293 65.112L94.0553 65.4911L94.0559 65.4906L93.7293 65.112ZM90.2733 70.104L89.8029 69.9343L89.8005 69.9412L90.2733 70.104ZM89.8413 80.712L89.3527 80.8186L89.3532 80.8205L89.8413 80.712ZM91.8573 85.128L91.4648 85.4378L91.4689 85.4429L91.8573 85.128ZM101.073 85.176L101.365 85.5818L101.371 85.5779L101.073 85.176ZM104.913 79.608L104.446 79.4305L104.446 79.4305L104.913 79.608ZM106.353 69.672V69.172H105.853V69.672H106.353ZM106.545 69.672H107.045V69.172H106.545V69.672ZM105.201 79.272L104.726 79.1172L104.726 79.1172L105.201 79.272ZM100.881 85.704L101.186 86.1001L101.187 86.0994L100.881 85.704ZM115.185 87.46C113.728 87.46 112.354 87.2585 111.061 86.8584L110.765 87.8136C112.16 88.2455 113.635 88.46 115.185 88.46V87.46ZM111.051 86.8552C109.819 86.5034 108.807 85.788 108.005 84.6893L107.197 85.2787C108.124 86.548 109.319 87.4006 110.776 87.8168L111.051 86.8552ZM108.01 84.6965C107.263 83.6323 106.853 82.0234 106.853 79.8H105.853C105.853 82.1206 106.276 83.9677 107.192 85.2715L108.01 84.6965ZM106.853 79.8V57.768H105.853V79.8H106.853ZM106.853 57.768C106.853 55.4384 106.675 53.0935 106.32 50.7335L105.331 50.8825C105.679 53.1945 105.853 55.4896 105.853 57.768H106.853ZM106.321 50.741C105.991 48.3036 105.196 46.2481 103.916 44.5976L103.126 45.2104C104.278 46.6959 105.019 48.5764 105.33 50.875L106.321 50.741ZM103.92 44.6027C102.614 42.8733 100.57 42.052 97.9053 42.052V43.052C100.36 43.052 102.06 43.7987 103.122 45.2053L103.92 44.6027ZM97.9053 42.052C96.0711 42.052 94.2537 42.2813 92.4539 42.7394L92.7006 43.7085C94.4208 43.2707 96.1554 43.052 97.9053 43.052V42.052ZM92.4539 42.7394C90.6542 43.1976 88.9965 43.8534 87.4832 44.7087L87.9753 45.5793C89.406 44.7706 90.9803 44.1464 92.7006 43.7085L92.4539 42.7394ZM87.4864 44.7069C85.9951 45.5354 84.7729 46.5534 83.8306 47.765L84.6199 48.379C85.4696 47.2865 86.5834 46.3526 87.9721 45.5811L87.4864 44.7069ZM83.8294 47.7666C82.8982 48.9737 82.4293 50.3449 82.4293 51.864H83.4293C83.4293 50.5671 83.8243 49.4103 84.6211 48.3774L83.8294 47.7666ZM82.9293 51.364H82.8333V52.364H82.9293V51.364ZM83.3333 51.864C83.3333 50.3503 83.8171 49.217 84.7473 48.3996L84.0872 47.6484C82.9054 48.687 82.3333 50.1137 82.3333 51.864H83.3333ZM84.7481 48.3989C85.7578 47.508 86.8274 47.084 87.9693 47.084V46.084C86.5511 46.084 85.2527 46.62 84.0864 47.6491L84.7481 48.3989ZM87.9693 47.084C89.2266 47.084 90.3655 47.4901 91.4009 48.3184L92.0256 47.5376C90.821 46.5739 89.4639 46.084 87.9693 46.084V47.084ZM91.4133 48.328C92.4213 49.084 92.9413 50.1734 92.9413 51.672H93.9413C93.9413 49.9066 93.3092 48.5 92.0133 47.528L91.4133 48.328ZM92.9413 51.672C92.9413 53.4866 92.3872 54.7022 91.3705 55.4441L91.96 56.2519C93.3113 55.2658 93.9413 53.6974 93.9413 51.672H92.9413ZM91.3653 55.448C90.2909 56.2538 89.1624 56.644 87.9693 56.644V57.644C89.4001 57.644 90.7356 57.1702 91.9653 56.248L91.3653 55.448ZM87.9693 56.644C86.6076 56.644 85.4796 56.2332 84.5545 55.4237L83.896 56.1763C85.0189 57.1588 86.3869 57.644 87.9693 57.644V56.644ZM84.5604 55.4289C83.7021 54.6537 83.2373 53.4945 83.2373 51.864H82.2373C82.2373 53.6895 82.7644 55.1543 83.8901 56.171L84.5604 55.4289ZM83.2373 51.864C83.2373 50.4719 83.6637 49.2364 84.5228 48.1404L83.7357 47.5236C82.7388 48.7955 82.2373 50.2481 82.2373 51.864H83.2373ZM84.5217 48.1418C85.4312 46.9897 86.6525 46.0083 88.1999 45.2036L87.7386 44.3164C86.086 45.1757 84.7473 46.2423 83.7368 47.5222L84.5217 48.1418ZM88.2032 45.2019C89.7902 44.3617 91.5865 43.72 93.5961 43.2804L93.3824 42.3035C91.296 42.7599 89.4124 43.4303 87.7353 44.3181L88.2032 45.2019ZM93.6033 43.2788C95.6127 42.8079 97.6863 42.572 99.8253 42.572V41.572C97.6122 41.572 95.4618 41.8161 93.3752 42.3052L93.6033 43.2788ZM99.8253 42.572C104.2 42.572 107.355 43.3361 109.374 44.7825L109.956 43.9695C107.687 42.3439 104.282 41.572 99.8253 41.572V42.572ZM109.377 44.7845C111.466 46.2591 112.817 48.1334 113.456 50.4148L114.419 50.1452C113.714 47.6266 112.217 45.5649 109.954 43.9675L109.377 44.7845ZM113.457 50.4207C114.148 52.7734 114.493 55.2219 114.493 57.768H115.493C115.493 55.1301 115.135 52.5866 114.417 50.1393L113.457 50.4207ZM114.493 57.768V82.632H115.493V57.768H114.493ZM114.493 82.632C114.493 83.8494 114.73 84.9391 115.221 85.8862L116.109 85.4258C115.704 84.6449 115.493 83.7186 115.493 82.632H114.493ZM115.232 85.9059C115.837 86.9547 116.98 87.404 118.449 87.404V86.404C117.166 86.404 116.453 86.0213 116.098 85.4061L115.232 85.9059ZM118.449 87.404C119.731 87.404 121.073 86.7835 122.46 85.6606L121.831 84.8834C120.53 85.9365 119.407 86.404 118.449 86.404V87.404ZM122.455 85.6642C123.904 84.5189 125.039 82.9935 125.867 81.1048L124.951 80.7032C124.18 82.4625 123.139 83.8491 121.835 84.8798L122.455 85.6642ZM125.132 81.32L125.276 81.416L125.831 80.584L125.687 80.488L125.132 81.32ZM125.09 80.8118C124.295 82.7687 123.013 84.3732 121.233 85.6317L121.81 86.4483C123.742 85.0828 125.147 83.3273 126.016 81.1882L125.09 80.8118ZM121.237 85.6284C119.469 86.8478 117.457 87.46 115.185 87.46V88.46C117.649 88.46 119.861 87.7922 121.805 86.4516L121.237 85.6284ZM93.0573 87.46C88.9825 87.46 85.7796 86.427 83.3962 84.4103L82.7503 85.1737C85.3589 87.381 88.812 88.46 93.0573 88.46V87.46ZM83.4015 84.4148C81.0601 82.3775 79.8773 79.6263 79.8773 76.104H78.8773C78.8773 79.8777 80.1584 82.9185 82.745 85.1692L83.4015 84.4148ZM79.8773 76.104C79.8773 71.9851 81.5834 68.8654 85.021 66.6863L84.4855 65.8417C80.7551 68.2066 78.8773 71.6469 78.8773 76.104H79.8773ZM85.0219 66.6857C88.5233 64.4547 93.6292 63.308 100.401 63.308V62.308C93.5413 62.308 88.2152 63.4653 84.4846 65.8423L85.0219 66.6857ZM100.401 63.308H110.817V62.308H100.401V63.308ZM110.317 62.808V63H111.317V62.808H110.317ZM110.817 62.5H100.401V63.5H110.817V62.5ZM100.401 62.5C97.5028 62.5 95.1502 63.2257 93.4026 64.7334L94.0559 65.4906C95.5723 64.1823 97.6677 63.5 100.401 63.5V62.5ZM93.4032 64.7329C91.739 66.1641 90.5367 67.8998 89.8029 69.9344L90.7436 70.2736C91.4178 68.4042 92.5195 66.8119 94.0553 65.4911L93.4032 64.7329ZM89.8005 69.9412C89.1135 71.9368 88.7653 73.848 88.7653 75.672H89.7653C89.7653 73.976 90.089 72.1752 90.746 70.2668L89.8005 69.9412ZM88.7653 75.672C88.7653 77.312 88.962 79.0279 89.3527 80.8186L90.3298 80.6054C89.9525 78.8761 89.7653 77.232 89.7653 75.672H88.7653ZM89.3532 80.8205C89.7512 82.6114 90.4519 84.1549 91.4648 85.4378L92.2497 84.8182C91.3426 83.6691 90.6994 82.2686 90.3293 80.6035L89.3532 80.8205ZM91.4689 85.4429C92.5333 86.7557 93.9943 87.404 95.7933 87.404V86.404C94.2642 86.404 93.1012 85.8683 92.2456 84.8131L91.4689 85.4429ZM95.7933 87.404C97.8211 87.404 99.6828 86.7933 101.365 85.5818L100.781 84.7702C99.2637 85.8627 97.6054 86.404 95.7933 86.404V87.404ZM101.371 85.5779C103.071 84.3199 104.399 82.3719 105.381 79.7855L104.446 79.4305C103.508 81.9001 102.276 83.6641 100.776 84.7741L101.371 85.5779ZM105.381 79.7855C106.37 77.1795 106.853 73.8006 106.853 69.672H105.853C105.853 73.7354 105.376 76.9805 104.446 79.4305L105.381 79.7855ZM106.353 70.172H106.545V69.172H106.353V70.172ZM106.045 69.672C106.045 73.2805 105.602 76.4263 104.726 79.1172L105.677 79.4268C106.593 76.6137 107.045 73.3595 107.045 69.672H106.045ZM104.726 79.1172C103.856 81.7889 102.468 83.8431 100.575 85.3086L101.187 86.0994C103.262 84.4929 104.755 82.2591 105.677 79.4268L104.726 79.1172ZM100.576 85.3079C98.7362 86.7256 96.2466 87.46 93.0573 87.46V88.46C96.3959 88.46 99.1223 87.6904 101.186 86.1001L100.576 85.3079ZM140.283 15H140.783V14.5H140.283V15ZM140.283 86.808H139.783V87.308H140.283V86.808ZM147.963 86.808H148.463V86.308H147.963V86.808ZM147.963 87V87.5H148.463V87H147.963ZM123.963 87H123.463V87.5H123.963V87ZM123.963 86.808V86.308H123.463V86.808H123.963ZM131.691 86.808V87.308H132.191V86.808H131.691ZM131.691 15.192H132.191V14.692H131.691V15.192ZM123.963 15.192H123.463V15.692H123.963V15.192ZM123.963 15V14.5H123.463V15H123.963ZM139.783 15V86.808H140.783V15H139.783ZM140.283 87.308H147.963V86.308H140.283V87.308ZM147.463 86.808V87H148.463V86.808H147.463ZM147.963 86.5H123.963V87.5H147.963V86.5ZM124.463 87V86.808H123.463V87H124.463ZM123.963 87.308H131.691V86.308H123.963V87.308ZM132.191 86.808V15.192H131.191V86.808H132.191ZM131.691 14.692H123.963V15.692H131.691V14.692ZM124.463 15.192V15H123.463V15.192H124.463ZM123.963 15.5H140.283V14.5H123.963V15.5ZM156.265 23.88L155.906 24.2287L155.916 24.2385L156.265 23.88ZM156.265 15.72L155.916 15.3615L155.911 15.3664L156.265 15.72ZM164.425 15.72L164.071 16.0736L164.071 16.0736L164.425 15.72ZM164.425 23.88L164.779 24.2336L164.783 24.2285L164.425 23.88ZM164.617 42.84H165.117V42.34H164.617V42.84ZM164.617 86.808H164.117V87.308H164.617V86.808ZM170.377 86.808H170.877V86.308H170.377V86.808ZM170.377 87V87.5H170.877V87H170.377ZM150.217 87H149.717V87.5H150.217V87ZM150.217 86.808V86.308H149.717V86.808H150.217ZM155.977 86.808V87.308H156.477V86.808H155.977ZM155.977 43.032H156.477V42.532H155.977V43.032ZM150.217 43.032H149.717V43.532H150.217V43.032ZM150.217 42.84V42.34H149.717V42.84H150.217ZM160.345 25.06C158.911 25.06 157.675 24.5533 156.614 23.5215L155.916 24.2385C157.159 25.4467 158.643 26.06 160.345 26.06V25.06ZM156.623 23.5315C155.592 22.4702 155.085 21.2343 155.085 19.8H154.085C154.085 21.5017 154.698 22.9858 155.907 24.2285L156.623 23.5315ZM155.085 19.8C155.085 18.3311 155.593 17.0987 156.619 16.0736L155.911 15.3664C154.697 16.5813 154.085 18.0689 154.085 19.8H155.085ZM156.614 16.0785C157.675 15.0467 158.911 14.54 160.345 14.54V13.54C158.643 13.54 157.159 14.1533 155.916 15.3615L156.614 16.0785ZM160.345 14.54C161.814 14.54 163.046 15.0484 164.071 16.0736L164.779 15.3664C163.564 14.1516 162.076 13.54 160.345 13.54V14.54ZM164.071 16.0736C165.097 17.0987 165.605 18.3311 165.605 19.8H166.605C166.605 18.0689 165.993 16.5813 164.779 15.3664L164.071 16.0736ZM165.605 19.8C165.605 21.2343 165.098 22.4702 164.067 23.5315L164.783 24.2285C165.992 22.9858 166.605 21.5017 166.605 19.8H165.605ZM164.071 23.5264C163.046 24.5516 161.814 25.06 160.345 25.06V26.06C162.076 26.06 163.564 25.4484 164.779 24.2336L164.071 23.5264ZM164.117 42.84V86.808H165.117V42.84H164.117ZM164.617 87.308H170.377V86.308H164.617V87.308ZM169.877 86.808V87H170.877V86.808H169.877ZM170.377 86.5H150.217V87.5H170.377V86.5ZM150.717 87V86.808H149.717V87H150.717ZM150.217 87.308H155.977V86.308H150.217V87.308ZM156.477 86.808V43.032H155.477V86.808H156.477ZM155.977 42.532H150.217V43.532H155.977V42.532ZM150.717 43.032V42.84H149.717V43.032H150.717ZM150.217 43.34H164.617V42.34H150.217V43.34ZM181.674 85.944L181.33 86.307L181.335 86.3114L181.674 85.944ZM179.274 81.624L178.784 81.7221L178.786 81.7325L179.274 81.624ZM178.746 33.24V32.74H178.246V33.24H178.746ZM183.402 32.328L183.234 31.8573L183.231 31.8584L183.402 32.328ZM187.386 30.36H187.886V29.3733L187.091 29.9568L187.386 30.36ZM188.25 84.936L187.839 85.2207L187.844 85.2282L188.25 84.936ZM196.362 83.448L196.722 83.7951L196.725 83.7919L196.362 83.448ZM200.394 77.208V76.708H200.059L199.932 77.0179L200.394 77.208ZM200.586 77.208L201.054 77.3836L201.308 76.708H200.586V77.208ZM195.354 84.744L195.034 84.3603L195.031 84.3625L195.354 84.744ZM171.738 43.032H171.238V43.532H171.738V43.032ZM171.738 42.84V42.34H171.238V42.84H171.738ZM197.658 42.84H198.158V42.34H197.658V42.84ZM197.658 43.032V43.532H198.158V43.032H197.658ZM187.482 87.172C184.918 87.172 183.13 86.6072 182.013 85.5766L181.335 86.3114C182.715 87.5848 184.799 88.172 187.482 88.172V87.172ZM182.018 85.581C180.879 84.5016 180.126 83.152 179.762 81.5155L178.786 81.7325C179.19 83.552 180.038 85.0824 181.33 86.307L182.018 85.581ZM179.765 81.5259C179.419 79.7976 179.246 78.0704 179.246 76.344H178.246C178.246 78.1376 178.426 79.9304 178.784 81.7221L179.765 81.5259ZM179.246 76.344V33.24H178.246V76.344H179.246ZM178.746 33.74C180.257 33.74 181.867 33.4213 183.574 32.7976L183.231 31.8584C181.609 32.4507 180.116 32.74 178.746 32.74V33.74ZM183.571 32.7987C185.292 32.1818 186.669 31.5063 187.682 30.7632L187.091 29.9568C186.184 30.6217 184.905 31.2582 183.234 31.8573L183.571 32.7987ZM186.886 30.36V80.088H187.886V30.36H186.886ZM186.886 80.088C186.886 81.3053 186.959 82.3409 187.11 83.1877C187.26 84.0276 187.493 84.72 187.839 85.2206L188.661 84.6514C188.432 84.32 188.233 83.7884 188.094 83.0123C187.957 82.2431 187.886 81.2707 187.886 80.088H186.886ZM187.844 85.2282C188.542 86.1964 189.646 86.636 191.034 86.636V85.636C189.862 85.636 189.111 85.2756 188.656 84.6438L187.844 85.2282ZM191.034 86.636C193.038 86.636 194.935 85.6481 196.722 83.7951L196.002 83.1009C194.333 84.8319 192.679 85.636 191.034 85.636V86.636ZM196.725 83.7919C198.496 81.9229 199.873 79.7907 200.857 77.3981L199.932 77.0179C198.995 79.2973 197.685 81.3251 195.999 83.1041L196.725 83.7919ZM200.394 77.708H200.586V76.708H200.394V77.708ZM200.118 77.0324C198.994 80.03 197.298 82.468 195.034 84.3603L195.675 85.1277C198.082 83.1159 199.874 80.53 201.054 77.3836L200.118 77.0324ZM195.031 84.3625C192.815 86.2401 190.305 87.172 187.482 87.172V88.172C190.548 88.172 193.286 87.1519 195.677 85.1255L195.031 84.3625ZM172.238 43.032V42.84H171.238V43.032H172.238ZM171.738 43.34H197.658V42.34H171.738V43.34ZM197.158 42.84V43.032H198.158V42.84H197.158ZM197.658 42.532H171.738V43.532H197.658V42.532Z" fill="#4A473C"/>
<path d="M88.472 96.84V140.808H94.232V141H74.072V140.808H79.88V97.032H74.072V96.84H88.472ZM117.8 110.376V140.808H123.56V141H103.4V140.808H109.112V111.432C109.112 108.744 109 106.248 108.776 103.944C108.552 101.64 108.024 99.784 107.192 98.376C106.392 96.968 105.096 96.264 103.304 96.264C99.88 96.264 97.16 97.064 95.144 98.664C93.16 100.264 91.688 102.296 90.728 104.76C89.768 107.192 89.144 109.736 88.856 112.392C88.6 115.048 88.472 117.448 88.472 119.592L88.28 120.072C88.28 117.8 88.408 115.288 88.664 112.536C88.92 109.752 89.528 107.096 90.488 104.568C91.48 102.04 93.048 99.96 95.192 98.328C97.368 96.696 100.344 95.88 104.12 95.88C107.864 95.88 110.712 96.504 112.664 97.752C114.648 99 115.992 100.728 116.696 102.936C117.432 105.112 117.8 107.592 117.8 110.376Z" fill="#4A473C"/>
<path d="M140.226 96.84V140.808H145.986V141H125.826V140.808H131.586V97.032H125.826V96.84H140.226Z" fill="#4A473C"/>
<path d="M171.635 141.96C167.443 141.96 163.699 141.048 160.403 139.224C157.107 137.368 154.515 134.728 152.627 131.304C150.739 127.848 149.795 123.72 149.795 118.92C149.795 114.76 150.643 110.936 152.339 107.448C154.067 103.96 156.595 101.16 159.923 99.048C163.251 96.936 167.331 95.88 172.163 95.88C175.427 95.88 178.243 96.456 180.611 97.608C182.979 98.76 184.787 100.312 186.035 102.264C187.315 104.216 187.955 106.392 187.955 108.792C187.955 110.52 187.459 111.864 186.467 112.824C185.475 113.784 184.243 114.264 182.771 114.264C181.971 114.264 181.139 114.088 180.275 113.736C179.443 113.352 178.739 112.776 178.163 112.008C177.587 111.208 177.299 110.168 177.299 108.888C177.299 107.192 177.843 105.912 178.931 105.048C180.019 104.152 181.299 103.704 182.771 103.704C184.147 103.704 185.331 104.136 186.323 105C187.347 105.832 187.859 107.096 187.859 108.792H187.763C187.763 106.744 187.331 104.936 186.467 103.368C185.635 101.8 184.515 100.488 183.107 99.432C181.699 98.344 180.131 97.528 178.403 96.984C176.675 96.44 174.915 96.168 173.123 96.168C170.275 96.168 167.971 96.92 166.211 98.424C164.451 99.896 163.107 101.816 162.179 104.184C161.251 106.52 160.627 109 160.307 111.624C159.987 114.216 159.827 116.648 159.827 118.92C159.827 121.672 159.987 124.392 160.307 127.08C160.659 129.768 161.267 132.2 162.131 134.376C163.027 136.552 164.291 138.296 165.923 139.608C167.555 140.92 169.667 141.576 172.259 141.576C175.203 141.576 177.731 140.968 179.843 139.752C181.987 138.504 183.779 136.808 185.219 134.664C186.659 132.488 187.811 130.024 188.675 127.272H188.867C187.619 131.432 185.651 134.92 182.963 137.736C180.275 140.552 176.499 141.96 171.635 141.96Z" fill="#4A473C"/>
<path d="M216.115 141.96C211.603 141.96 207.699 140.904 204.403 138.792C201.139 136.68 198.611 133.88 196.819 130.392C195.027 126.904 194.131 123.08 194.131 118.92C194.131 114.76 195.027 110.936 196.819 107.448C198.611 103.96 201.139 101.16 204.403 99.048C207.699 96.936 211.603 95.88 216.115 95.88C220.627 95.88 224.531 96.936 227.827 99.048C231.123 101.16 233.651 103.96 235.411 107.448C237.203 110.936 238.099 114.76 238.099 118.92C238.099 123.08 237.203 126.904 235.411 130.392C233.651 133.88 231.123 136.68 227.827 138.792C224.531 140.904 220.627 141.96 216.115 141.96ZM216.115 141.768C218.739 141.768 220.835 141.016 222.403 139.512C224.003 138.008 225.203 136.088 226.003 133.752C226.803 131.384 227.331 128.888 227.587 126.264C227.875 123.608 228.019 121.16 228.019 118.92C228.019 116.648 227.875 114.2 227.587 111.576C227.331 108.952 226.803 106.472 226.003 104.136C225.203 101.768 224.003 99.832 222.403 98.328C220.835 96.824 218.739 96.072 216.115 96.072C213.491 96.072 211.379 96.824 209.779 98.328C208.211 99.832 207.027 101.768 206.227 104.136C205.427 106.472 204.883 108.952 204.595 111.576C204.339 114.2 204.211 116.648 204.211 118.92C204.211 121.16 204.339 123.608 204.595 126.264C204.883 128.888 205.427 131.384 206.227 133.752C207.027 136.088 208.211 138.008 209.779 139.512C211.379 141.016 213.491 141.768 216.115 141.768Z" fill="#4A473C"/>
<path d="M257.612 69V140.808H265.292V141H241.292V140.808H249.02V69.192H241.292V69H257.612Z" fill="#4A473C"/>
<path d="M304.218 141.96C302.714 141.96 301.29 141.752 299.946 141.336C298.602 140.952 297.498 140.168 296.634 138.984C295.802 137.8 295.386 136.072 295.386 133.8V111.768C295.386 109.464 295.21 107.144 294.858 104.808C294.538 102.44 293.77 100.472 292.554 98.904C291.37 97.336 289.498 96.552 286.938 96.552C285.146 96.552 283.37 96.776 281.61 97.224C279.85 97.672 278.234 98.312 276.762 99.144C275.322 99.944 274.154 100.92 273.258 102.072C272.394 103.192 271.962 104.456 271.962 105.864H271.866C271.866 104.232 272.394 102.952 273.45 102.024C274.538 101.064 275.722 100.584 277.002 100.584C278.378 100.584 279.626 101.032 280.746 101.928C281.898 102.792 282.474 104.04 282.474 105.672C282.474 107.592 281.882 108.984 280.698 109.848C279.546 110.712 278.314 111.144 277.002 111.144C275.53 111.144 274.282 110.696 273.258 109.8C272.266 108.904 271.77 107.592 271.77 105.864C271.77 104.36 272.234 103.016 273.162 101.832C274.122 100.616 275.402 99.592 277.002 98.76C278.634 97.896 280.474 97.24 282.522 96.792C284.57 96.312 286.682 96.072 288.858 96.072C293.274 96.072 296.554 96.84 298.698 98.376C300.874 99.912 302.298 101.88 302.97 104.28C303.674 106.68 304.026 109.176 304.026 111.768V136.632C304.026 137.784 304.25 138.792 304.698 139.656C305.178 140.488 306.106 140.904 307.482 140.904C308.602 140.904 309.834 140.36 311.178 139.272C312.554 138.184 313.642 136.728 314.442 134.904L314.586 135C313.754 137.048 312.41 138.728 310.554 140.04C308.698 141.32 306.586 141.96 304.218 141.96ZM282.09 141.96C277.93 141.96 274.602 140.904 272.106 138.792C269.642 136.648 268.41 133.752 268.41 130.104C268.41 125.816 270.202 122.536 273.786 120.264C277.402 117.96 282.618 116.808 289.434 116.808H299.85V117H289.434C286.618 117 284.394 117.704 282.762 119.112C281.162 120.488 280.01 122.152 279.306 124.104C278.634 126.056 278.298 127.912 278.298 129.672C278.298 131.272 278.49 132.952 278.874 134.712C279.258 136.44 279.93 137.912 280.89 139.128C281.85 140.312 283.162 140.904 284.826 140.904C286.746 140.904 288.506 140.328 290.106 139.176C291.706 137.992 292.986 136.136 293.946 133.608C294.906 131.08 295.386 127.768 295.386 123.672H295.578C295.578 127.32 295.13 130.52 294.234 133.272C293.338 136.024 291.898 138.168 289.914 139.704C287.962 141.208 285.354 141.96 282.09 141.96ZM285.306 87.576L285.21 87.432L294.378 76.392C294.986 75.656 295.642 75.256 296.346 75.192C297.082 75.128 297.754 75.272 298.362 75.624C299.002 75.944 299.466 76.376 299.754 76.92C300.074 77.432 300.218 78.008 300.186 78.648C300.186 79.288 300.026 79.88 299.706 80.424C299.418 80.968 299.002 81.368 298.458 81.624L285.306 87.576Z" fill="#4A473C"/>
<path d="M314.916 141.96V128.52H315.108C315.172 130.92 315.988 133.128 317.556 135.144C319.156 137.128 321.204 138.712 323.7 139.896C326.196 141.08 328.836 141.672 331.62 141.672C333.54 141.672 335.396 141.384 337.188 140.808C339.012 140.232 340.5 139.288 341.652 137.976C342.836 136.632 343.428 134.824 343.428 132.552C343.428 130.504 342.772 128.904 341.46 127.752C340.148 126.6 338.452 125.672 336.372 124.968C334.292 124.232 332.084 123.528 329.748 122.856C327.412 122.152 325.204 121.288 323.124 120.264C321.044 119.208 319.348 117.784 318.036 115.992C316.724 114.2 316.068 111.816 316.068 108.84C316.068 106.792 316.548 104.792 317.508 102.84C318.5 100.856 319.988 99.224 321.972 97.944C323.956 96.632 326.468 95.976 329.508 95.976C331.844 95.976 333.972 96.36 335.892 97.128C337.812 97.896 339.46 98.904 340.836 100.152L345.156 95.88H345.348V109.32H345.156C345.156 107.24 344.484 105.192 343.14 103.176C341.796 101.16 339.956 99.496 337.62 98.184C335.284 96.84 332.612 96.168 329.604 96.168C327.748 96.168 326.068 96.456 324.564 97.032C323.092 97.576 321.908 98.392 321.012 99.48C320.148 100.568 319.716 101.896 319.716 103.464C319.716 105.384 320.404 106.92 321.78 108.072C323.188 109.224 324.98 110.2 327.156 111C329.364 111.8 331.684 112.584 334.116 113.352C336.58 114.088 338.9 115.016 341.076 116.136C343.284 117.224 345.076 118.664 346.452 120.456C347.86 122.216 348.564 124.52 348.564 127.368C348.564 130.216 347.844 132.744 346.404 134.952C344.964 137.128 342.996 138.84 340.5 140.088C338.036 141.336 335.252 141.96 332.148 141.96C329.716 141.96 327.428 141.56 325.284 140.76C323.14 139.96 321.268 138.872 319.668 137.496L315.108 141.96H314.916Z" fill="#4A473C"/>
<path d="M88.472 96.84V140.808H94.232V141H74.072V140.808H79.88V97.032H74.072V96.84H88.472ZM117.8 110.376V140.808H123.56V141H103.4V140.808H109.112V111.432C109.112 108.744 109 106.248 108.776 103.944C108.552 101.64 108.024 99.784 107.192 98.376C106.392 96.968 105.096 96.264 103.304 96.264C99.88 96.264 97.16 97.064 95.144 98.664C93.16 100.264 91.688 102.296 90.728 104.76C89.768 107.192 89.144 109.736 88.856 112.392C88.6 115.048 88.472 117.448 88.472 119.592L88.28 120.072C88.28 117.8 88.408 115.288 88.664 112.536C88.92 109.752 89.528 107.096 90.488 104.568C91.48 102.04 93.048 99.96 95.192 98.328C97.368 96.696 100.344 95.88 104.12 95.88C107.864 95.88 110.712 96.504 112.664 97.752C114.648 99 115.992 100.728 116.696 102.936C117.432 105.112 117.8 107.592 117.8 110.376Z" stroke="#4A473C"/>
<path d="M140.226 96.84V140.808H145.986V141H125.826V140.808H131.586V97.032H125.826V96.84H140.226Z" stroke="#4A473C"/>
<path d="M171.635 141.96C167.443 141.96 163.699 141.048 160.403 139.224C157.107 137.368 154.515 134.728 152.627 131.304C150.739 127.848 149.795 123.72 149.795 118.92C149.795 114.76 150.643 110.936 152.339 107.448C154.067 103.96 156.595 101.16 159.923 99.048C163.251 96.936 167.331 95.88 172.163 95.88C175.427 95.88 178.243 96.456 180.611 97.608C182.979 98.76 184.787 100.312 186.035 102.264C187.315 104.216 187.955 106.392 187.955 108.792C187.955 110.52 187.459 111.864 186.467 112.824C185.475 113.784 184.243 114.264 182.771 114.264C181.971 114.264 181.139 114.088 180.275 113.736C179.443 113.352 178.739 112.776 178.163 112.008C177.587 111.208 177.299 110.168 177.299 108.888C177.299 107.192 177.843 105.912 178.931 105.048C180.019 104.152 181.299 103.704 182.771 103.704C184.147 103.704 185.331 104.136 186.323 105C187.347 105.832 187.859 107.096 187.859 108.792H187.763C187.763 106.744 187.331 104.936 186.467 103.368C185.635 101.8 184.515 100.488 183.107 99.432C181.699 98.344 180.131 97.528 178.403 96.984C176.675 96.44 174.915 96.168 173.123 96.168C170.275 96.168 167.971 96.92 166.211 98.424C164.451 99.896 163.107 101.816 162.179 104.184C161.251 106.52 160.627 109 160.307 111.624C159.987 114.216 159.827 116.648 159.827 118.92C159.827 121.672 159.987 124.392 160.307 127.08C160.659 129.768 161.267 132.2 162.131 134.376C163.027 136.552 164.291 138.296 165.923 139.608C167.555 140.92 169.667 141.576 172.259 141.576C175.203 141.576 177.731 140.968 179.843 139.752C181.987 138.504 183.779 136.808 185.219 134.664C186.659 132.488 187.811 130.024 188.675 127.272H188.867C187.619 131.432 185.651 134.92 182.963 137.736C180.275 140.552 176.499 141.96 171.635 141.96Z" stroke="#4A473C"/>
<path d="M216.115 141.96C211.603 141.96 207.699 140.904 204.403 138.792C201.139 136.68 198.611 133.88 196.819 130.392C195.027 126.904 194.131 123.08 194.131 118.92C194.131 114.76 195.027 110.936 196.819 107.448C198.611 103.96 201.139 101.16 204.403 99.048C207.699 96.936 211.603 95.88 216.115 95.88C220.627 95.88 224.531 96.936 227.827 99.048C231.123 101.16 233.651 103.96 235.411 107.448C237.203 110.936 238.099 114.76 238.099 118.92C238.099 123.08 237.203 126.904 235.411 130.392C233.651 133.88 231.123 136.68 227.827 138.792C224.531 140.904 220.627 141.96 216.115 141.96ZM216.115 141.768C218.739 141.768 220.835 141.016 222.403 139.512C224.003 138.008 225.203 136.088 226.003 133.752C226.803 131.384 227.331 128.888 227.587 126.264C227.875 123.608 228.019 121.16 228.019 118.92C228.019 116.648 227.875 114.2 227.587 111.576C227.331 108.952 226.803 106.472 226.003 104.136C225.203 101.768 224.003 99.832 222.403 98.328C220.835 96.824 218.739 96.072 216.115 96.072C213.491 96.072 211.379 96.824 209.779 98.328C208.211 99.832 207.027 101.768 206.227 104.136C205.427 106.472 204.883 108.952 204.595 111.576C204.339 114.2 204.211 116.648 204.211 118.92C204.211 121.16 204.339 123.608 204.595 126.264C204.883 128.888 205.427 131.384 206.227 133.752C207.027 136.088 208.211 138.008 209.779 139.512C211.379 141.016 213.491 141.768 216.115 141.768Z" stroke="#4A473C"/>
<path d="M257.612 69V140.808H265.292V141H241.292V140.808H249.02V69.192H241.292V69H257.612Z" stroke="#4A473C"/>
<path d="M304.218 141.96C302.714 141.96 301.29 141.752 299.946 141.336C298.602 140.952 297.498 140.168 296.634 138.984C295.802 137.8 295.386 136.072 295.386 133.8V111.768C295.386 109.464 295.21 107.144 294.858 104.808C294.538 102.44 293.77 100.472 292.554 98.904C291.37 97.336 289.498 96.552 286.938 96.552C285.146 96.552 283.37 96.776 281.61 97.224C279.85 97.672 278.234 98.312 276.762 99.144C275.322 99.944 274.154 100.92 273.258 102.072C272.394 103.192 271.962 104.456 271.962 105.864H271.866C271.866 104.232 272.394 102.952 273.45 102.024C274.538 101.064 275.722 100.584 277.002 100.584C278.378 100.584 279.626 101.032 280.746 101.928C281.898 102.792 282.474 104.04 282.474 105.672C282.474 107.592 281.882 108.984 280.698 109.848C279.546 110.712 278.314 111.144 277.002 111.144C275.53 111.144 274.282 110.696 273.258 109.8C272.266 108.904 271.77 107.592 271.77 105.864C271.77 104.36 272.234 103.016 273.162 101.832C274.122 100.616 275.402 99.592 277.002 98.76C278.634 97.896 280.474 97.24 282.522 96.792C284.57 96.312 286.682 96.072 288.858 96.072C293.274 96.072 296.554 96.84 298.698 98.376C300.874 99.912 302.298 101.88 302.97 104.28C303.674 106.68 304.026 109.176 304.026 111.768V136.632C304.026 137.784 304.25 138.792 304.698 139.656C305.178 140.488 306.106 140.904 307.482 140.904C308.602 140.904 309.834 140.36 311.178 139.272C312.554 138.184 313.642 136.728 314.442 134.904L314.586 135C313.754 137.048 312.41 138.728 310.554 140.04C308.698 141.32 306.586 141.96 304.218 141.96ZM282.09 141.96C277.93 141.96 274.602 140.904 272.106 138.792C269.642 136.648 268.41 133.752 268.41 130.104C268.41 125.816 270.202 122.536 273.786 120.264C277.402 117.96 282.618 116.808 289.434 116.808H299.85V117H289.434C286.618 117 284.394 117.704 282.762 119.112C281.162 120.488 280.01 122.152 279.306 124.104C278.634 126.056 278.298 127.912 278.298 129.672C278.298 131.272 278.49 132.952 278.874 134.712C279.258 136.44 279.93 137.912 280.89 139.128C281.85 140.312 283.162 140.904 284.826 140.904C286.746 140.904 288.506 140.328 290.106 139.176C291.706 137.992 292.986 136.136 293.946 133.608C294.906 131.08 295.386 127.768 295.386 123.672H295.578C295.578 127.32 295.13 130.52 294.234 133.272C293.338 136.024 291.898 138.168 289.914 139.704C287.962 141.208 285.354 141.96 282.09 141.96ZM285.306 87.576L285.21 87.432L294.378 76.392C294.986 75.656 295.642 75.256 296.346 75.192C297.082 75.128 297.754 75.272 298.362 75.624C299.002 75.944 299.466 76.376 299.754 76.92C300.074 77.432 300.218 78.008 300.186 78.648C300.186 79.288 300.026 79.88 299.706 80.424C299.418 80.968 299.002 81.368 298.458 81.624L285.306 87.576Z" stroke="#4A473C"/>
<path d="M314.916 141.96V128.52H315.108C315.172 130.92 315.988 133.128 317.556 135.144C319.156 137.128 321.204 138.712 323.7 139.896C326.196 141.08 328.836 141.672 331.62 141.672C333.54 141.672 335.396 141.384 337.188 140.808C339.012 140.232 340.5 139.288 341.652 137.976C342.836 136.632 343.428 134.824 343.428 132.552C343.428 130.504 342.772 128.904 341.46 127.752C340.148 126.6 338.452 125.672 336.372 124.968C334.292 124.232 332.084 123.528 329.748 122.856C327.412 122.152 325.204 121.288 323.124 120.264C321.044 119.208 319.348 117.784 318.036 115.992C316.724 114.2 316.068 111.816 316.068 108.84C316.068 106.792 316.548 104.792 317.508 102.84C318.5 100.856 319.988 99.224 321.972 97.944C323.956 96.632 326.468 95.976 329.508 95.976C331.844 95.976 333.972 96.36 335.892 97.128C337.812 97.896 339.46 98.904 340.836 100.152L345.156 95.88H345.348V109.32H345.156C345.156 107.24 344.484 105.192 343.14 103.176C341.796 101.16 339.956 99.496 337.62 98.184C335.284 96.84 332.612 96.168 329.604 96.168C327.748 96.168 326.068 96.456 324.564 97.032C323.092 97.576 321.908 98.392 321.012 99.48C320.148 100.568 319.716 101.896 319.716 103.464C319.716 105.384 320.404 106.92 321.78 108.072C323.188 109.224 324.98 110.2 327.156 111C329.364 111.8 331.684 112.584 334.116 113.352C336.58 114.088 338.9 115.016 341.076 116.136C343.284 117.224 345.076 118.664 346.452 120.456C347.86 122.216 348.564 124.52 348.564 127.368C348.564 130.216 347.844 132.744 346.404 134.952C344.964 137.128 342.996 138.84 340.5 140.088C338.036 141.336 335.252 141.96 332.148 141.96C329.716 141.96 327.428 141.56 325.284 140.76C323.14 139.96 321.268 138.872 319.668 137.496L315.108 141.96H314.916Z" stroke="#4A473C"/>
<path d="M141.344 162.112C138.912 162.112 136.928 162.656 135.392 163.744C133.856 164.8 132.656 166.16 131.792 167.824C130.96 169.488 130.384 171.344 130.064 173.392C129.776 175.44 129.632 177.456 129.632 179.44C129.632 181.392 129.776 183.392 130.064 185.44C130.384 187.488 130.96 189.344 131.792 191.008C132.656 192.672 133.856 194.032 135.392 195.088C136.928 196.144 138.912 196.672 141.344 196.672C143.808 196.672 145.792 196.144 147.296 195.088C148.832 194.032 150.016 192.672 150.848 191.008C151.712 189.344 152.288 187.488 152.576 185.44C152.896 183.392 153.056 181.376 153.056 179.392C153.056 177.44 152.896 175.44 152.576 173.392C152.288 171.344 151.712 169.488 150.848 167.824C150.016 166.16 148.832 164.8 147.296 163.744C145.792 162.656 143.808 162.112 141.344 162.112ZM141.344 164.656C143.264 164.656 144.8 165.152 145.952 166.144C147.104 167.136 147.968 168.368 148.544 169.84C149.152 171.312 149.552 172.912 149.744 174.64C149.936 176.368 150.032 177.952 150.032 179.392C150.032 180.864 149.936 182.464 149.744 184.192C149.552 185.888 149.152 187.488 148.544 188.992C147.968 190.464 147.104 191.696 145.952 192.688C144.8 193.68 143.264 194.176 141.344 194.176C139.424 194.176 137.888 193.68 136.736 192.688C135.584 191.696 134.704 190.464 134.096 188.992C133.52 187.488 133.136 185.888 132.944 184.192C132.752 182.464 132.656 180.864 132.656 179.392C132.656 177.952 132.752 176.368 132.944 174.64C133.136 172.912 133.52 171.312 134.096 169.84C134.704 168.368 135.584 167.136 136.736 166.144C137.888 165.152 139.424 164.656 141.344 164.656ZM176.368 196V193.216H157.696C157.888 192.096 158.368 191.072 159.136 190.144C159.904 189.184 160.784 188.304 161.776 187.504C162.8 186.704 163.856 185.984 164.944 185.344C166.032 184.672 166.976 184.064 167.776 183.52C168.896 182.816 169.952 182.064 170.944 181.264C171.968 180.432 172.864 179.536 173.632 178.576C174.432 177.616 175.056 176.56 175.504 175.408C175.984 174.256 176.224 172.976 176.224 171.568C176.224 170 175.952 168.624 175.408 167.44C174.896 166.256 174.16 165.28 173.2 164.512C172.272 163.712 171.168 163.12 169.888 162.736C168.64 162.32 167.28 162.112 165.808 162.112C163.984 162.112 162.384 162.416 161.008 163.024C159.664 163.6 158.544 164.416 157.648 165.472C156.752 166.528 156.08 167.792 155.632 169.264C155.216 170.704 155.024 172.288 155.056 174.016H158.08C158.048 172.768 158.16 171.584 158.416 170.464C158.704 169.344 159.152 168.352 159.76 167.488C160.368 166.624 161.152 165.936 162.112 165.424C163.104 164.912 164.288 164.656 165.664 164.656C166.688 164.656 167.648 164.816 168.544 165.136C169.472 165.424 170.272 165.872 170.944 166.48C171.648 167.056 172.192 167.776 172.576 168.64C172.992 169.472 173.2 170.432 173.2 171.52C173.2 172.864 172.96 174.032 172.48 175.024C172.032 175.984 171.344 176.928 170.416 177.856C169.488 178.784 168.432 179.664 167.248 180.496C166.096 181.296 164.928 182.096 163.744 182.896C162.56 183.664 161.408 184.48 160.288 185.344C159.168 186.176 158.16 187.104 157.264 188.128C156.368 189.152 155.648 190.304 155.104 191.584C154.56 192.864 154.272 194.336 154.24 196H176.368ZM201.567 162.112C199.135 162.112 197.151 162.656 195.615 163.744C194.079 164.8 192.879 166.16 192.015 167.824C191.183 169.488 190.607 171.344 190.287 173.392C189.999 175.44 189.855 177.456 189.855 179.44C189.855 181.392 189.999 183.392 190.287 185.44C190.607 187.488 191.183 189.344 192.015 191.008C192.879 192.672 194.079 194.032 195.615 195.088C197.151 196.144 199.135 196.672 201.567 196.672C204.031 196.672 206.015 196.144 207.519 195.088C209.055 194.032 210.239 192.672 211.071 191.008C211.935 189.344 212.511 187.488 212.799 185.44C213.119 183.392 213.279 181.376 213.279 179.392C213.279 177.44 213.119 175.44 212.799 173.392C212.511 171.344 211.935 169.488 211.071 167.824C210.239 166.16 209.055 164.8 207.519 163.744C206.015 162.656 204.031 162.112 201.567 162.112ZM201.567 164.656C203.487 164.656 205.023 165.152 206.175 166.144C207.327 167.136 208.191 168.368 208.767 169.84C209.375 171.312 209.775 172.912 209.967 174.64C210.159 176.368 210.255 177.952 210.255 179.392C210.255 180.864 210.159 182.464 209.967 184.192C209.775 185.888 209.375 187.488 208.767 188.992C208.191 190.464 207.327 191.696 206.175 192.688C205.023 193.68 203.487 194.176 201.567 194.176C199.647 194.176 198.111 193.68 196.959 192.688C195.807 191.696 194.927 190.464 194.319 188.992C193.743 187.488 193.359 185.888 193.167 184.192C192.975 182.464 192.879 180.864 192.879 179.392C192.879 177.952 192.975 176.368 193.167 174.64C193.359 172.912 193.743 171.312 194.319 169.84C194.927 168.368 195.807 167.136 196.959 166.144C198.111 165.152 199.647 164.656 201.567 164.656ZM233.951 170.896H236.975C236.623 167.92 235.567 165.712 233.807 164.272C232.047 162.832 229.663 162.112 226.655 162.112C224.831 162.112 223.263 162.432 221.951 163.072C220.639 163.712 219.535 164.544 218.639 165.568C217.775 166.592 217.071 167.744 216.527 169.024C216.015 170.272 215.615 171.52 215.327 172.768C215.039 173.984 214.847 175.136 214.751 176.224C214.687 177.312 214.655 178.192 214.655 178.864C214.655 182.16 214.879 184.944 215.327 187.216C215.807 189.456 216.527 191.28 217.487 192.688C218.447 194.096 219.663 195.12 221.135 195.76C222.607 196.368 224.367 196.672 226.415 196.672C228.079 196.672 229.599 196.4 230.975 195.856C232.383 195.28 233.583 194.496 234.575 193.504C235.599 192.48 236.383 191.28 236.927 189.904C237.503 188.496 237.791 186.976 237.791 185.344C237.791 183.712 237.519 182.208 236.975 180.832C236.463 179.456 235.727 178.272 234.767 177.28C233.807 176.288 232.639 175.52 231.263 174.976C229.919 174.4 228.399 174.112 226.703 174.112C224.783 174.112 223.007 174.624 221.375 175.648C219.775 176.672 218.575 178.016 217.775 179.68H217.679C217.679 178.144 217.791 176.512 218.015 174.784C218.239 173.024 218.687 171.392 219.359 169.888C220.031 168.384 220.975 167.136 222.191 166.144C223.407 165.152 224.991 164.656 226.943 164.656C228.895 164.656 230.479 165.232 231.695 166.384C232.943 167.536 233.695 169.04 233.951 170.896ZM226.655 176.656C227.935 176.656 229.071 176.896 230.063 177.376C231.087 177.824 231.935 178.448 232.607 179.248C233.311 180.048 233.839 180.992 234.191 182.08C234.575 183.168 234.767 184.32 234.767 185.536C234.767 186.688 234.575 187.792 234.191 188.848C233.807 189.904 233.247 190.832 232.511 191.632C231.807 192.4 230.959 193.024 229.967 193.504C229.007 193.952 227.919 194.176 226.703 194.176C225.231 194.176 223.967 193.952 222.911 193.504C221.855 193.056 220.975 192.448 220.271 191.68C219.599 190.88 219.103 189.952 218.783 188.896C218.463 187.84 218.303 186.72 218.303 185.536C218.303 184.288 218.479 183.136 218.831 182.08C219.215 180.992 219.759 180.048 220.463 179.248C221.199 178.448 222.079 177.824 223.103 177.376C224.159 176.896 225.343 176.656 226.655 176.656ZM272.302 196V193.216H253.63C253.822 192.096 254.302 191.072 255.07 190.144C255.838 189.184 256.718 188.304 257.71 187.504C258.734 186.704 259.79 185.984 260.878 185.344C261.966 184.672 262.91 184.064 263.71 183.52C264.83 182.816 265.886 182.064 266.878 181.264C267.902 180.432 268.798 179.536 269.566 178.576C270.366 177.616 270.99 176.56 271.438 175.408C271.918 174.256 272.158 172.976 272.158 171.568C272.158 170 271.886 168.624 271.342 167.44C270.83 166.256 270.094 165.28 269.134 164.512C268.206 163.712 267.102 163.12 265.822 162.736C264.574 162.32 263.214 162.112 261.742 162.112C259.918 162.112 258.318 162.416 256.942 163.024C255.598 163.6 254.478 164.416 253.582 165.472C252.686 166.528 252.014 167.792 251.566 169.264C251.15 170.704 250.958 172.288 250.99 174.016H254.014C253.982 172.768 254.094 171.584 254.35 170.464C254.638 169.344 255.086 168.352 255.694 167.488C256.302 166.624 257.086 165.936 258.046 165.424C259.038 164.912 260.222 164.656 261.598 164.656C262.622 164.656 263.582 164.816 264.478 165.136C265.406 165.424 266.206 165.872 266.878 166.48C267.582 167.056 268.126 167.776 268.51 168.64C268.926 169.472 269.134 170.432 269.134 171.52C269.134 172.864 268.894 174.032 268.414 175.024C267.966 175.984 267.278 176.928 266.35 177.856C265.422 178.784 264.366 179.664 263.182 180.496C262.03 181.296 260.862 182.096 259.678 182.896C258.494 183.664 257.342 184.48 256.222 185.344C255.102 186.176 254.094 187.104 253.198 188.128C252.302 189.152 251.582 190.304 251.038 191.584C250.494 192.864 250.206 194.336 250.174 196H272.302ZM286.302 162.112C283.87 162.112 281.886 162.656 280.35 163.744C278.814 164.8 277.614 166.16 276.75 167.824C275.918 169.488 275.342 171.344 275.022 173.392C274.734 175.44 274.59 177.456 274.59 179.44C274.59 181.392 274.734 183.392 275.022 185.44C275.342 187.488 275.918 189.344 276.75 191.008C277.614 192.672 278.814 194.032 280.35 195.088C281.886 196.144 283.87 196.672 286.302 196.672C288.766 196.672 290.75 196.144 292.254 195.088C293.79 194.032 294.974 192.672 295.806 191.008C296.67 189.344 297.246 187.488 297.534 185.44C297.854 183.392 298.014 181.376 298.014 179.392C298.014 177.44 297.854 175.44 297.534 173.392C297.246 171.344 296.67 169.488 295.806 167.824C294.974 166.16 293.79 164.8 292.254 163.744C290.75 162.656 288.766 162.112 286.302 162.112ZM286.302 164.656C288.222 164.656 289.758 165.152 290.91 166.144C292.062 167.136 292.926 168.368 293.502 169.84C294.11 171.312 294.51 172.912 294.702 174.64C294.894 176.368 294.99 177.952 294.99 179.392C294.99 180.864 294.894 182.464 294.702 184.192C294.51 185.888 294.11 187.488 293.502 188.992C292.926 190.464 292.062 191.696 290.91 192.688C289.758 193.68 288.222 194.176 286.302 194.176C284.382 194.176 282.846 193.68 281.694 192.688C280.542 191.696 279.662 190.464 279.054 188.992C278.478 187.488 278.094 185.888 277.902 184.192C277.71 182.464 277.614 180.864 277.614 179.392C277.614 177.952 277.71 176.368 277.902 174.64C278.094 172.912 278.478 171.312 279.054 169.84C279.662 168.368 280.542 167.136 281.694 166.144C282.846 165.152 284.382 164.656 286.302 164.656ZM321.326 196V193.216H302.654C302.846 192.096 303.326 191.072 304.094 190.144C304.862 189.184 305.742 188.304 306.734 187.504C307.758 186.704 308.814 185.984 309.902 185.344C310.99 184.672 311.934 184.064 312.734 183.52C313.854 182.816 314.91 182.064 315.902 181.264C316.926 180.432 317.822 179.536 318.59 178.576C319.39 177.616 320.014 176.56 320.462 175.408C320.942 174.256 321.182 172.976 321.182 171.568C321.182 170 320.91 168.624 320.366 167.44C319.854 166.256 319.118 165.28 318.158 164.512C317.23 163.712 316.126 163.12 314.846 162.736C313.598 162.32 312.238 162.112 310.766 162.112C308.942 162.112 307.342 162.416 305.966 163.024C304.622 163.6 303.502 164.416 302.606 165.472C301.71 166.528 301.038 167.792 300.59 169.264C300.174 170.704 299.982 172.288 300.014 174.016H303.038C303.006 172.768 303.118 171.584 303.374 170.464C303.662 169.344 304.11 168.352 304.718 167.488C305.326 166.624 306.11 165.936 307.07 165.424C308.062 164.912 309.246 164.656 310.622 164.656C311.646 164.656 312.606 164.816 313.502 165.136C314.43 165.424 315.23 165.872 315.902 166.48C316.606 167.056 317.15 167.776 317.534 168.64C317.95 169.472 318.158 170.432 318.158 171.52C318.158 172.864 317.918 174.032 317.438 175.024C316.99 175.984 316.302 176.928 315.374 177.856C314.446 178.784 313.39 179.664 312.206 180.496C311.054 181.296 309.886 182.096 308.702 182.896C307.518 183.664 306.366 184.48 305.246 185.344C304.126 186.176 303.118 187.104 302.222 188.128C301.326 189.152 300.606 190.304 300.062 191.584C299.518 192.864 299.23 194.336 299.198 196H321.326ZM326.59 185.296H323.566C323.438 187.12 323.63 188.736 324.142 190.144C324.686 191.552 325.47 192.736 326.494 193.696C327.55 194.656 328.798 195.392 330.238 195.904C331.71 196.416 333.31 196.672 335.038 196.672C336.574 196.672 338.046 196.448 339.454 196C340.862 195.584 342.094 194.944 343.15 194.08C344.206 193.216 345.038 192.16 345.646 190.912C346.286 189.632 346.606 188.16 346.606 186.496C346.606 184.288 345.998 182.448 344.782 180.976C343.598 179.472 341.902 178.544 339.694 178.192V178.096C341.518 177.648 342.91 176.752 343.87 175.408C344.862 174.064 345.358 172.48 345.358 170.656C345.358 169.152 345.054 167.872 344.446 166.816C343.87 165.728 343.086 164.848 342.094 164.176C341.134 163.472 340.03 162.96 338.782 162.64C337.534 162.288 336.254 162.112 334.942 162.112C333.31 162.112 331.838 162.4 330.526 162.976C329.214 163.52 328.094 164.288 327.166 165.28C326.27 166.24 325.566 167.392 325.054 168.736C324.574 170.08 324.334 171.552 324.334 173.152H327.358C327.326 171.904 327.47 170.768 327.79 169.744C328.11 168.688 328.59 167.792 329.23 167.056C329.902 166.288 330.718 165.696 331.678 165.28C332.638 164.864 333.742 164.656 334.99 164.656C336.014 164.656 336.958 164.784 337.822 165.04C338.718 165.264 339.502 165.648 340.174 166.192C340.846 166.704 341.374 167.36 341.758 168.16C342.142 168.928 342.334 169.872 342.334 170.992C342.334 172.048 342.126 172.96 341.71 173.728C341.294 174.496 340.75 175.136 340.078 175.648C339.438 176.128 338.702 176.496 337.87 176.752C337.07 176.976 336.286 177.088 335.518 177.088H332.974V179.632H335.518C336.638 179.632 337.678 179.776 338.638 180.064C339.63 180.352 340.494 180.8 341.23 181.408C341.966 181.984 342.542 182.72 342.958 183.616C343.374 184.48 343.582 185.52 343.582 186.736C343.582 187.92 343.342 188.976 342.862 189.904C342.382 190.832 341.742 191.616 340.942 192.256C340.142 192.896 339.23 193.376 338.206 193.696C337.182 194.016 336.11 194.176 334.99 194.176C333.646 194.176 332.43 193.968 331.342 193.552C330.286 193.104 329.39 192.496 328.654 191.728C327.95 190.96 327.406 190.032 327.022 188.944C326.67 187.856 326.526 186.64 326.59 185.296Z" fill="#4A473C"/>
</svg>
